<?xml version="1.0" encoding="UTF-8" standalone="no"?>
<!DOCTYPE svg PUBLIC "-//W3C//DTD SVG 1.1//EN"
 "http://www.w3.org/Graphics/SVG/1.1/DTD/svg11.dtd">
<!-- Generated by graphviz version 2.38.0 (20140413.2041)
 -->
<!-- Title: G Pages: 1 -->
<svg width="934pt" height="2990pt"
 viewBox="0.00 0.00 934.05 2990.00" xmlns="http://www.w3.org/2000/svg" xmlns:xlink="http://www.w3.org/1999/xlink">
<g id="graph0" class="graph" transform="scale(1 1) rotate(0) translate(4 2986)">
<title>G</title>
<polygon fill="white" stroke="none" points="-4,4 -4,-2986 930.052,-2986 930.052,4 -4,4"/>
<g id="clust1" class="cluster"><title>cluster_Global</title>
<path fill="none" stroke="gray" d="M387.566,-584C387.566,-584 906.052,-584 906.052,-584 912.052,-584 918.052,-590 918.052,-596 918.052,-596 918.052,-2962 918.052,-2962 918.052,-2968 912.052,-2974 906.052,-2974 906.052,-2974 387.566,-2974 387.566,-2974 381.566,-2974 375.566,-2968 375.566,-2962 375.566,-2962 375.566,-596 375.566,-596 375.566,-590 381.566,-584 387.566,-584"/>
<text text-anchor="middle" x="646.809" y="-2961.2" font-family="Times,serif" font-size="11.00" fill="gray">Global</text>
</g>
<g id="clust2" class="cluster"><title>cluster_\App</title>
<path fill="none" stroke="gray" d="M395.566,-1030C395.566,-1030 898.052,-1030 898.052,-1030 904.052,-1030 910.052,-1036 910.052,-1042 910.052,-1042 910.052,-2934 910.052,-2934 910.052,-2940 904.052,-2946 898.052,-2946 898.052,-2946 395.566,-2946 395.566,-2946 389.566,-2946 383.566,-2940 383.566,-2934 383.566,-2934 383.566,-1042 383.566,-1042 383.566,-1036 389.566,-1030 395.566,-1030"/>
<text text-anchor="middle" x="646.809" y="-2933.2" font-family="Times,serif" font-size="11.00" fill="gray">App</text>
</g>
<g id="clust3" class="cluster"><title>cluster_\App\View</title>
<path fill="none" stroke="gray" d="M423.566,-2712C423.566,-2712 855.052,-2712 855.052,-2712 861.052,-2712 867.052,-2718 867.052,-2724 867.052,-2724 867.052,-2906 867.052,-2906 867.052,-2912 861.052,-2918 855.052,-2918 855.052,-2918 423.566,-2918 423.566,-2918 417.566,-2918 411.566,-2912 411.566,-2906 411.566,-2906 411.566,-2724 411.566,-2724 411.566,-2718 417.566,-2712 423.566,-2712"/>
<text text-anchor="middle" x="639.309" y="-2905.2" font-family="Times,serif" font-size="11.00" fill="gray">View</text>
</g>
<g id="clust4" class="cluster"><title>cluster_\App\View\Helper</title>
<path fill="none" stroke="gray" d="M717.052,-2720C717.052,-2720 847.052,-2720 847.052,-2720 853.052,-2720 859.052,-2726 859.052,-2732 859.052,-2732 859.052,-2834 859.052,-2834 859.052,-2840 853.052,-2846 847.052,-2846 847.052,-2846 717.052,-2846 717.052,-2846 711.052,-2846 705.052,-2840 705.052,-2834 705.052,-2834 705.052,-2732 705.052,-2732 705.052,-2726 711.052,-2720 717.052,-2720"/>
<text text-anchor="middle" x="782.052" y="-2833.2" font-family="Times,serif" font-size="11.00" fill="gray">Helper</text>
</g>
<g id="clust5" class="cluster"><title>cluster_\App\Console</title>
<path fill="none" stroke="gray" d="M747.552,-2632C747.552,-2632 816.552,-2632 816.552,-2632 822.552,-2632 828.552,-2638 828.552,-2644 828.552,-2644 828.552,-2692 828.552,-2692 828.552,-2698 822.552,-2704 816.552,-2704 816.552,-2704 747.552,-2704 747.552,-2704 741.552,-2704 735.552,-2698 735.552,-2692 735.552,-2692 735.552,-2644 735.552,-2644 735.552,-2638 741.552,-2632 747.552,-2632"/>
<text text-anchor="middle" x="782.052" y="-2691.2" font-family="Times,serif" font-size="11.00" fill="gray">Console</text>
</g>
<g id="clust6" class="cluster"><title>cluster_\App\Controller</title>
<path fill="none" stroke="gray" d="M403.566,-2390C403.566,-2390 860.552,-2390 860.552,-2390 866.552,-2390 872.552,-2396 872.552,-2402 872.552,-2402 872.552,-2612 872.552,-2612 872.552,-2618 866.552,-2624 860.552,-2624 860.552,-2624 403.566,-2624 403.566,-2624 397.566,-2624 391.566,-2618 391.566,-2612 391.566,-2612 391.566,-2402 391.566,-2402 391.566,-2396 397.566,-2390 403.566,-2390"/>
<text text-anchor="middle" x="632.059" y="-2611.2" font-family="Times,serif" font-size="11.00" fill="gray">Controller</text>
</g>
<g id="clust7" class="cluster"><title>cluster_\App\Model</title>
<path fill="none" stroke="gray" d="M712.552,-1978C712.552,-1978 851.552,-1978 851.552,-1978 857.552,-1978 863.552,-1984 863.552,-1990 863.552,-1990 863.552,-2370 863.552,-2370 863.552,-2376 857.552,-2382 851.552,-2382 851.552,-2382 712.552,-2382 712.552,-2382 706.552,-2382 700.552,-2376 700.552,-2370 700.552,-2370 700.552,-1990 700.552,-1990 700.552,-1984 706.552,-1978 712.552,-1978"/>
<text text-anchor="middle" x="782.052" y="-2369.2" font-family="Times,serif" font-size="11.00" fill="gray">Model</text>
</g>
<g id="clust8" class="cluster"><title>cluster_\App\Model\Entity</title>
<path fill="none" stroke="gray" d="M740.552,-2174C740.552,-2174 823.552,-2174 823.552,-2174 829.552,-2174 835.552,-2180 835.552,-2186 835.552,-2186 835.552,-2342 835.552,-2342 835.552,-2348 829.552,-2354 823.552,-2354 823.552,-2354 740.552,-2354 740.552,-2354 734.552,-2354 728.552,-2348 728.552,-2342 728.552,-2342 728.552,-2186 728.552,-2186 728.552,-2180 734.552,-2174 740.552,-2174"/>
<text text-anchor="middle" x="782.052" y="-2341.2" font-family="Times,serif" font-size="11.00" fill="gray">Entity</text>
</g>
<g id="clust9" class="cluster"><title>cluster_\App\Model\Table</title>
<path fill="none" stroke="gray" d="M720.552,-1986C720.552,-1986 843.552,-1986 843.552,-1986 849.552,-1986 855.552,-1992 855.552,-1998 855.552,-1998 855.552,-2154 855.552,-2154 855.552,-2160 849.552,-2166 843.552,-2166 843.552,-2166 720.552,-2166 720.552,-2166 714.552,-2166 708.552,-2160 708.552,-2154 708.552,-2154 708.552,-1998 708.552,-1998 708.552,-1992 714.552,-1986 720.552,-1986"/>
<text text-anchor="middle" x="782.052" y="-2153.2" font-family="Times,serif" font-size="11.00" fill="gray">Table</text>
</g>
<g id="clust10" class="cluster"><title>cluster_\App\Shell</title>
<path fill="none" stroke="gray" d="M737.052,-1898C737.052,-1898 827.052,-1898 827.052,-1898 833.052,-1898 839.052,-1904 839.052,-1910 839.052,-1910 839.052,-1958 839.052,-1958 839.052,-1964 833.052,-1970 827.052,-1970 827.052,-1970 737.052,-1970 737.052,-1970 731.052,-1970 725.052,-1964 725.052,-1958 725.052,-1958 725.052,-1910 725.052,-1910 725.052,-1904 731.052,-1898 737.052,-1898"/>
<text text-anchor="middle" x="782.052" y="-1957.2" font-family="Times,serif" font-size="11.00" fill="gray">Shell</text>
</g>
<g id="clust11" class="cluster"><title>cluster_\App\Test</title>
<path fill="none" stroke="gray" d="M674.052,-1038C674.052,-1038 890.052,-1038 890.052,-1038 896.052,-1038 902.052,-1044 902.052,-1050 902.052,-1050 902.052,-1878 902.052,-1878 902.052,-1884 896.052,-1890 890.052,-1890 890.052,-1890 674.052,-1890 674.052,-1890 668.052,-1890 662.052,-1884 662.052,-1878 662.052,-1878 662.052,-1050 662.052,-1050 662.052,-1044 668.052,-1038 674.052,-1038"/>
<text text-anchor="middle" x="782.052" y="-1877.2" font-family="Times,serif" font-size="11.00" fill="gray">Test</text>
</g>
<g id="clust12" class="cluster"><title>cluster_\App\Test\Fixture</title>
<path fill="none" stroke="gray" d="M713.552,-1682C713.552,-1682 850.552,-1682 850.552,-1682 856.552,-1682 862.552,-1688 862.552,-1694 862.552,-1694 862.552,-1850 862.552,-1850 862.552,-1856 856.552,-1862 850.552,-1862 850.552,-1862 713.552,-1862 713.552,-1862 707.552,-1862 701.552,-1856 701.552,-1850 701.552,-1850 701.552,-1694 701.552,-1694 701.552,-1688 707.552,-1682 713.552,-1682"/>
<text text-anchor="middle" x="782.052" y="-1849.2" font-family="Times,serif" font-size="11.00" fill="gray">Fixture</text>
</g>
<g id="clust13" class="cluster"><title>cluster_\App\Test\TestCase</title>
<path fill="none" stroke="gray" d="M682.052,-1046C682.052,-1046 882.052,-1046 882.052,-1046 888.052,-1046 894.052,-1052 894.052,-1058 894.052,-1058 894.052,-1662 894.052,-1662 894.052,-1668 888.052,-1674 882.052,-1674 882.052,-1674 682.052,-1674 682.052,-1674 676.052,-1674 670.052,-1668 670.052,-1662 670.052,-1662 670.052,-1058 670.052,-1058 670.052,-1052 676.052,-1046 682.052,-1046"/>
<text text-anchor="middle" x="782.052" y="-1661.2" font-family="Times,serif" font-size="11.00" fill="gray">TestCase</text>
</g>
<g id="clust14" class="cluster"><title>cluster_\App\Test\TestCase\Controller</title>
<path fill="none" stroke="gray" d="M690.052,-1466C690.052,-1466 874.052,-1466 874.052,-1466 880.052,-1466 886.052,-1472 886.052,-1478 886.052,-1478 886.052,-1634 886.052,-1634 886.052,-1640 880.052,-1646 874.052,-1646 874.052,-1646 690.052,-1646 690.052,-1646 684.052,-1646 678.052,-1640 678.052,-1634 678.052,-1634 678.052,-1478 678.052,-1478 678.052,-1472 684.052,-1466 690.052,-1466"/>
<text text-anchor="middle" x="782.052" y="-1633.2" font-family="Times,serif" font-size="11.00" fill="gray">Controller</text>
</g>
<g id="clust15" class="cluster"><title>cluster_\App\Test\TestCase\Model</title>
<path fill="none" stroke="gray" d="M699.052,-1054C699.052,-1054 865.052,-1054 865.052,-1054 871.052,-1054 877.052,-1060 877.052,-1066 877.052,-1066 877.052,-1446 877.052,-1446 877.052,-1452 871.052,-1458 865.052,-1458 865.052,-1458 699.052,-1458 699.052,-1458 693.052,-1458 687.052,-1452 687.052,-1446 687.052,-1446 687.052,-1066 687.052,-1066 687.052,-1060 693.052,-1054 699.052,-1054"/>
<text text-anchor="middle" x="782.052" y="-1445.2" font-family="Times,serif" font-size="11.00" fill="gray">Model</text>
</g>
<g id="clust16" class="cluster"><title>cluster_\App\Test\TestCase\Model\Entity</title>
<path fill="none" stroke="gray" d="M727.052,-1250C727.052,-1250 837.052,-1250 837.052,-1250 843.052,-1250 849.052,-1256 849.052,-1262 849.052,-1262 849.052,-1418 849.052,-1418 849.052,-1424 843.052,-1430 837.052,-1430 837.052,-1430 727.052,-1430 727.052,-1430 721.052,-1430 715.052,-1424 715.052,-1418 715.052,-1418 715.052,-1262 715.052,-1262 715.052,-1256 721.052,-1250 727.052,-1250"/>
<text text-anchor="middle" x="782.052" y="-1417.2" font-family="Times,serif" font-size="11.00" fill="gray">Entity</text>
</g>
<g id="clust17" class="cluster"><title>cluster_\App\Test\TestCase\Model\Table</title>
<path fill="none" stroke="gray" d="M707.052,-1062C707.052,-1062 857.052,-1062 857.052,-1062 863.052,-1062 869.052,-1068 869.052,-1074 869.052,-1074 869.052,-1230 869.052,-1230 869.052,-1236 863.052,-1242 857.052,-1242 857.052,-1242 707.052,-1242 707.052,-1242 701.052,-1242 695.052,-1236 695.052,-1230 695.052,-1230 695.052,-1074 695.052,-1074 695.052,-1068 701.052,-1062 707.052,-1062"/>
<text text-anchor="middle" x="782.052" y="-1229.2" font-family="Times,serif" font-size="11.00" fill="gray">Table</text>
</g>
<g id="clust18" class="cluster"><title>cluster_\Migrations</title>
<path fill="none" stroke="gray" d="M709.052,-806C709.052,-806 855.052,-806 855.052,-806 861.052,-806 867.052,-812 867.052,-818 867.052,-818 867.052,-1010 867.052,-1010 867.052,-1016 861.052,-1022 855.052,-1022 855.052,-1022 709.052,-1022 709.052,-1022 703.052,-1022 697.052,-1016 697.052,-1010 697.052,-1010 697.052,-818 697.052,-818 697.052,-812 703.052,-806 709.052,-806"/>
<text text-anchor="middle" x="782.052" y="-1009.2" font-family="Times,serif" font-size="11.00" fill="gray">Migrations</text>
</g>
<g id="clust19" class="cluster"><title>cluster_\Migrations\AbstractMigration</title>
<path fill="none" stroke="gray" d="M717.052,-814C717.052,-814 847.052,-814 847.052,-814 853.052,-814 859.052,-820 859.052,-826 859.052,-826 859.052,-982 859.052,-982 859.052,-988 853.052,-994 847.052,-994 847.052,-994 717.052,-994 717.052,-994 711.052,-994 705.052,-988 705.052,-982 705.052,-982 705.052,-826 705.052,-826 705.052,-820 711.052,-814 717.052,-814"/>
<text text-anchor="middle" x="782.052" y="-981.2" font-family="Times,serif" font-size="11.00" fill="gray">AbstractMigration</text>
</g>
<g id="clust20" class="cluster"><title>cluster_\Phinx</title>
<path fill="none" stroke="gray" d="M736.052,-690C736.052,-690 828.052,-690 828.052,-690 834.052,-690 840.052,-696 840.052,-702 840.052,-702 840.052,-786 840.052,-786 840.052,-792 834.052,-798 828.052,-798 828.052,-798 736.052,-798 736.052,-798 730.052,-798 724.052,-792 724.052,-786 724.052,-786 724.052,-702 724.052,-702 724.052,-696 730.052,-690 736.052,-690"/>
<text text-anchor="middle" x="782.052" y="-785.2" font-family="Times,serif" font-size="11.00" fill="gray">Phinx</text>
</g>
<g id="clust21" class="cluster"><title>cluster_\Phinx\Seed</title>
<path fill="none" stroke="gray" d="M744.052,-698C744.052,-698 820.052,-698 820.052,-698 826.052,-698 832.052,-704 832.052,-710 832.052,-710 832.052,-758 832.052,-758 832.052,-764 826.052,-770 820.052,-770 820.052,-770 744.052,-770 744.052,-770 738.052,-770 732.052,-764 732.052,-758 732.052,-758 732.052,-710 732.052,-710 732.052,-704 738.052,-698 744.052,-698"/>
<text text-anchor="middle" x="782.052" y="-757.2" font-family="Times,serif" font-size="11.00" fill="gray">Seed</text>
</g>
<!-- \\App\\View\\Helper\\TWBFormHelper -->
<g id="node1" class="node"><title>\\App\\View\\Helper\\TWBFormHelper</title>
<polygon fill="none" stroke="black" points="834.052,-2818 730.052,-2818 730.052,-2782 834.052,-2782 834.052,-2818"/>
<text text-anchor="middle" x="782.052" y="-2797.2" font-family="Courier,monospace" font-size="11.00">TWBFormHelper</text>
</g>
<!-- \\Cake\\View\\Helper\\FormHelper -->
<g id="node42" class="node"><title>\\Cake\\View\\Helper\\FormHelper</title>
<ellipse fill="none" stroke="black" cx="451.566" cy="-558" rx="122.379" ry="18"/>
<text text-anchor="middle" x="451.566" y="-554.3" font-family="Times,serif" font-size="14.00" fill="gray">\Cake\ViewHelper\FormHelper</text>
</g>
<!-- \\App\\View\\Helper\\TWBFormHelper&#45;&gt;\\Cake\\View\\Helper\\FormHelper -->
<g id="edge12" class="edge"><title>\\App\\View\\Helper\\TWBFormHelper&#45;&gt;\\Cake\\View\\Helper\\FormHelper</title>
<path fill="none" stroke="black" d="M729.888,-2801.38C705.803,-2799.16 678.764,-2792.02 662.052,-2773 643.022,-2751.35 477.186,-842.417 455.013,-586.296"/>
<polygon fill="none" stroke="black" points="458.497,-585.954 454.147,-576.293 451.523,-586.558 458.497,-585.954"/>
</g>
<!-- \\App\\View\\Helper\\TWBPaginatorHelper -->
<g id="node2" class="node"><title>\\App\\View\\Helper\\TWBPaginatorHelper</title>
<polygon fill="none" stroke="black" points="851.052,-2764 713.052,-2764 713.052,-2728 851.052,-2728 851.052,-2764"/>
<text text-anchor="middle" x="782.052" y="-2743.2" font-family="Courier,monospace" font-size="11.00">TWBPaginatorHelper</text>
</g>
<!-- \\Cake\\View\\Helper\\PaginatorHelper -->
<g id="node44" class="node"><title>\\Cake\\View\\Helper\\PaginatorHelper</title>
<ellipse fill="none" stroke="black" cx="451.566" cy="-504" rx="136.476" ry="18"/>
<text text-anchor="middle" x="451.566" y="-500.3" font-family="Times,serif" font-size="14.00" fill="gray">\Cake\ViewHelper\PaginatorHelper</text>
</g>
<!-- \\App\\View\\Helper\\TWBPaginatorHelper&#45;&gt;\\Cake\\View\\Helper\\PaginatorHelper -->
<g id="edge17" class="edge"><title>\\App\\View\\Helper\\TWBPaginatorHelper&#45;&gt;\\Cake\\View\\Helper\\PaginatorHelper</title>
<path fill="none" stroke="black" d="M712.754,-2739.14C693.339,-2733.69 674.192,-2724.24 662.052,-2708 589.625,-2611.1 693.235,-622.458 614.052,-531 607.835,-523.819 600.49,-518.053 592.417,-513.455"/>
<polygon fill="none" stroke="black" points="593.896,-510.281 583.39,-508.911 590.749,-516.534 593.896,-510.281"/>
</g>
<!-- \\App\\View\\AppView -->
<g id="node3" class="node"><title>\\App\\View\\AppView</title>
<polygon fill="none" stroke="black" points="483.566,-2890 419.566,-2890 419.566,-2854 483.566,-2854 483.566,-2890"/>
<text text-anchor="middle" x="451.566" y="-2869.2" font-family="Courier,monospace" font-size="11.00">AppView</text>
</g>
<!-- \\Cake\\View\\View -->
<g id="node36" class="node"><title>\\Cake\\View\\View</title>
<ellipse fill="none" stroke="black" cx="108.54" cy="-2872" rx="74.187" ry="18"/>
<text text-anchor="middle" x="108.54" y="-2868.3" font-family="Times,serif" font-size="14.00" fill="gray">\Cake\View\View</text>
</g>
<!-- \\App\\View\\AppView&#45;&gt;\\Cake\\View\\View -->
<g id="edge1" class="edge"><title>\\App\\View\\AppView&#45;&gt;\\Cake\\View\\View</title>
<path fill="none" stroke="black" d="M419.398,-2872C368.518,-2872 265.955,-2872 192.767,-2872"/>
<polygon fill="none" stroke="black" points="192.643,-2868.5 182.643,-2872 192.643,-2875.5 192.643,-2868.5"/>
</g>
<!-- \\App\\View\\AjaxView -->
<g id="node4" class="node"><title>\\App\\View\\AjaxView</title>
<polygon fill="none" stroke="black" points="817.552,-2890 746.552,-2890 746.552,-2854 817.552,-2854 817.552,-2890"/>
<text text-anchor="middle" x="782.052" y="-2869.2" font-family="Courier,monospace" font-size="11.00">AjaxView</text>
</g>
<!-- \\App\\View\\AjaxView&#45;&gt;\\App\\View\\AppView -->
<g id="edge16" class="edge"><title>\\App\\View\\AjaxView&#45;&gt;\\App\\View\\AppView</title>
<path fill="none" stroke="black" d="M746.519,-2872C685.665,-2872 559.588,-2872 494.093,-2872"/>
<polygon fill="none" stroke="black" points="493.74,-2868.5 483.74,-2872 493.74,-2875.5 493.74,-2868.5"/>
</g>
<!-- \\App\\Console\\Installer -->
<g id="node5" class="node"><title>\\App\\Console\\Installer</title>
<polygon fill="none" stroke="black" points="820.552,-2676 743.552,-2676 743.552,-2640 820.552,-2640 820.552,-2676"/>
<text text-anchor="middle" x="782.052" y="-2655.2" font-family="Courier,monospace" font-size="11.00">Installer</text>
</g>
<!-- \\App\\Controller\\PagesController -->
<g id="node6" class="node"><title>\\App\\Controller\\PagesController</title>
<polygon fill="none" stroke="black" points="841.052,-2488 723.052,-2488 723.052,-2452 841.052,-2452 841.052,-2488"/>
<text text-anchor="middle" x="782.052" y="-2467.2" font-family="Courier,monospace" font-size="11.00">PagesController</text>
</g>
<!-- \\App\\Controller\\AppController -->
<g id="node9" class="node"><title>\\App\\Controller\\AppController</title>
<polygon fill="none" stroke="black" points="503.566,-2515 399.566,-2515 399.566,-2479 503.566,-2479 503.566,-2515"/>
<text text-anchor="middle" x="451.566" y="-2494.2" font-family="Courier,monospace" font-size="11.00">AppController</text>
</g>
<!-- \\App\\Controller\\PagesController&#45;&gt;\\App\\Controller\\AppController -->
<g id="edge3" class="edge"><title>\\App\\Controller\\PagesController&#45;&gt;\\App\\Controller\\AppController</title>
<path fill="none" stroke="black" d="M722.704,-2474.8C663.884,-2479.63 573.477,-2487.06 513.688,-2491.98"/>
<polygon fill="none" stroke="black" points="513.31,-2488.5 503.631,-2492.8 513.884,-2495.47 513.31,-2488.5"/>
</g>
<!-- \\App\\Controller\\ReservationsController -->
<g id="node7" class="node"><title>\\App\\Controller\\ReservationsController</title>
<polygon fill="none" stroke="black" points="864.552,-2434 699.552,-2434 699.552,-2398 864.552,-2398 864.552,-2434"/>
<text text-anchor="middle" x="782.052" y="-2413.2" font-family="Courier,monospace" font-size="11.00">ReservationsController</text>
</g>
<!-- \\App\\Controller\\ReservationsController&#45;&gt;\\App\\Controller\\AppController -->
<g id="edge9" class="edge"><title>\\App\\Controller\\ReservationsController&#45;&gt;\\App\\Controller\\AppController</title>
<path fill="none" stroke="black" d="M700.002,-2434.06C687.287,-2436.99 674.302,-2440.03 662.052,-2443 611.87,-2455.16 555.171,-2469.83 513.427,-2480.81"/>
<polygon fill="none" stroke="black" points="512.465,-2477.45 503.687,-2483.38 514.248,-2484.21 512.465,-2477.45"/>
</g>
<!-- \\App\\Controller\\UsersController -->
<g id="node8" class="node"><title>\\App\\Controller\\UsersController</title>
<polygon fill="none" stroke="black" points="841.052,-2596 723.052,-2596 723.052,-2560 841.052,-2560 841.052,-2596"/>
<text text-anchor="middle" x="782.052" y="-2575.2" font-family="Courier,monospace" font-size="11.00">UsersController</text>
</g>
<!-- \\App\\Controller\\UsersController&#45;&gt;\\App\\Controller\\AppController -->
<g id="edge13" class="edge"><title>\\App\\Controller\\UsersController&#45;&gt;\\App\\Controller\\AppController</title>
<path fill="none" stroke="black" d="M722.867,-2565.15C703.493,-2560.78 681.817,-2555.79 662.052,-2551 611.87,-2538.84 555.171,-2524.17 513.427,-2513.19"/>
<polygon fill="none" stroke="black" points="514.248,-2509.79 503.687,-2510.62 512.465,-2516.55 514.248,-2509.79"/>
</g>
<!-- \\Cake\\Controller\\Controller -->
<g id="node43" class="node"><title>\\Cake\\Controller\\Controller</title>
<ellipse fill="none" stroke="black" cx="108.54" cy="-2497" rx="108.581" ry="18"/>
<text text-anchor="middle" x="108.54" y="-2493.3" font-family="Times,serif" font-size="14.00" fill="gray">\Cake\Controller\Controller</text>
</g>
<!-- \\App\\Controller\\AppController&#45;&gt;\\Cake\\Controller\\Controller -->
<g id="edge14" class="edge"><title>\\App\\Controller\\AppController&#45;&gt;\\Cake\\Controller\\Controller</title>
<path fill="none" stroke="black" d="M399.511,-2497C354.194,-2497 286.254,-2497 227.526,-2497"/>
<polygon fill="none" stroke="black" points="227.432,-2493.5 217.432,-2497 227.432,-2500.5 227.432,-2493.5"/>
</g>
<!-- \\App\\Controller\\RoutesController -->
<g id="node10" class="node"><title>\\App\\Controller\\RoutesController</title>
<polygon fill="none" stroke="black" points="844.552,-2542 719.552,-2542 719.552,-2506 844.552,-2506 844.552,-2542"/>
<text text-anchor="middle" x="782.052" y="-2521.2" font-family="Courier,monospace" font-size="11.00">RoutesController</text>
</g>
<!-- \\App\\Controller\\RoutesController&#45;&gt;\\App\\Controller\\AppController -->
<g id="edge18" class="edge"><title>\\App\\Controller\\RoutesController&#45;&gt;\\App\\Controller\\AppController</title>
<path fill="none" stroke="black" d="M719.266,-2518.92C660.446,-2514.09 572.435,-2506.85 513.798,-2502.03"/>
<polygon fill="none" stroke="black" points="513.82,-2498.52 503.567,-2501.19 513.247,-2505.5 513.82,-2498.52"/>
</g>
<!-- \\App\\Model\\Entity\\User -->
<g id="node11" class="node"><title>\\App\\Model\\Entity\\User</title>
<polygon fill="none" stroke="black" points="809.052,-2326 755.052,-2326 755.052,-2290 809.052,-2290 809.052,-2326"/>
<text text-anchor="middle" x="782.052" y="-2305.2" font-family="Courier,monospace" font-size="11.00">User</text>
</g>
<!-- \\Cake\\ORM\\Entity -->
<g id="node38" class="node"><title>\\Cake\\ORM\\Entity</title>
<ellipse fill="none" stroke="black" cx="451.566" cy="-450" rx="70.3881" ry="18"/>
<text text-anchor="middle" x="451.566" y="-446.3" font-family="Times,serif" font-size="14.00" fill="gray">\Cake\ORMntity</text>
</g>
<!-- \\App\\Model\\Entity\\User&#45;&gt;\\Cake\\ORM\\Entity -->
<g id="edge4" class="edge"><title>\\App\\Model\\Entity\\User&#45;&gt;\\Cake\\ORM\\Entity</title>
<path fill="none" stroke="black" d="M755.037,-2310.43C727.251,-2311.43 684.225,-2308.02 662.052,-2281 534.859,-2125.99 745.644,-628.294 614.052,-477 592.674,-452.422 558.076,-444.438 526.378,-443.117"/>
<polygon fill="none" stroke="black" points="526.278,-439.614 516.208,-442.909 526.135,-446.613 526.278,-439.614"/>
</g>
<!-- \\App\\Model\\Entity\\Reservation -->
<g id="node12" class="node"><title>\\App\\Model\\Entity\\Reservation</title>
<polygon fill="none" stroke="black" points="827.552,-2272 736.552,-2272 736.552,-2236 827.552,-2236 827.552,-2272"/>
<text text-anchor="middle" x="782.052" y="-2251.2" font-family="Courier,monospace" font-size="11.00">Reservation</text>
</g>
<!-- \\App\\Model\\Entity\\Reservation&#45;&gt;\\Cake\\ORM\\Entity -->
<g id="edge8" class="edge"><title>\\App\\Model\\Entity\\Reservation&#45;&gt;\\Cake\\ORM\\Entity</title>
<path fill="none" stroke="black" d="M736.537,-2256.33C710.648,-2255.06 679.732,-2248.53 662.052,-2227 538.602,-2076.68 741.768,-623.716 614.052,-477 592.664,-452.431 558.065,-444.448 526.368,-443.125"/>
<polygon fill="none" stroke="black" points="526.269,-439.622 516.2,-442.917 526.126,-446.621 526.269,-439.622"/>
</g>
<!-- \\App\\Model\\Entity\\Route -->
<g id="node13" class="node"><title>\\App\\Model\\Entity\\Route</title>
<polygon fill="none" stroke="black" points="809.052,-2218 755.052,-2218 755.052,-2182 809.052,-2182 809.052,-2218"/>
<text text-anchor="middle" x="782.052" y="-2197.2" font-family="Courier,monospace" font-size="11.00">Route</text>
</g>
<!-- \\App\\Model\\Entity\\Route&#45;&gt;\\Cake\\ORM\\Entity -->
<g id="edge20" class="edge"><title>\\App\\Model\\Entity\\Route&#45;&gt;\\Cake\\ORM\\Entity</title>
<path fill="none" stroke="black" d="M754.971,-2201.72C727.126,-2201.96 684.05,-2197.42 662.052,-2170 544.294,-2023.21 737.677,-618.884 614.052,-477 592.653,-452.441 558.053,-444.459 526.358,-443.134"/>
<polygon fill="none" stroke="black" points="526.26,-439.631 516.19,-442.925 526.116,-446.63 526.26,-439.631"/>
</g>
<!-- \\App\\Model\\Table\\RoutesTable -->
<g id="node14" class="node"><title>\\App\\Model\\Table\\RoutesTable</title>
<polygon fill="none" stroke="black" points="827.552,-2138 736.552,-2138 736.552,-2102 827.552,-2102 827.552,-2138"/>
<text text-anchor="middle" x="782.052" y="-2117.2" font-family="Courier,monospace" font-size="11.00">RoutesTable</text>
</g>
<!-- \\Cake\\ORM\\Table -->
<g id="node40" class="node"><title>\\Cake\\ORM\\Table</title>
<ellipse fill="none" stroke="black" cx="451.566" cy="-396" rx="74.187" ry="18"/>
<text text-anchor="middle" x="451.566" y="-392.3" font-family="Times,serif" font-size="14.00" fill="gray">\Cake\ORMTable</text>
</g>
<!-- \\App\\Model\\Table\\RoutesTable&#45;&gt;\\Cake\\ORM\\Table -->
<g id="edge7" class="edge"><title>\\App\\Model\\Table\\RoutesTable&#45;&gt;\\Cake\\ORM\\Table</title>
<path fill="none" stroke="black" d="M736.547,-2122.32C710.661,-2121.05 679.746,-2114.52 662.052,-2093 544.147,-1949.62 736.026,-562.934 614.052,-423 593.496,-399.417 560.768,-391.121 530.132,-389.327"/>
<polygon fill="none" stroke="black" points="529.964,-385.819 519.844,-388.955 529.711,-392.814 529.964,-385.819"/>
</g>
<!-- \\App\\Model\\Table\\ReservationsTable -->
<g id="node15" class="node"><title>\\App\\Model\\Table\\ReservationsTable</title>
<polygon fill="none" stroke="black" points="847.552,-2084 716.552,-2084 716.552,-2048 847.552,-2048 847.552,-2084"/>
<text text-anchor="middle" x="782.052" y="-2063.2" font-family="Courier,monospace" font-size="11.00">ReservationsTable</text>
</g>
<!-- \\App\\Model\\Table\\ReservationsTable&#45;&gt;\\Cake\\ORM\\Table -->
<g id="edge10" class="edge"><title>\\App\\Model\\Table\\ReservationsTable&#45;&gt;\\Cake\\ORM\\Table</title>
<path fill="none" stroke="black" d="M716.406,-2066.21C695.987,-2062.82 675.313,-2055.11 662.052,-2039 547.889,-1900.31 732.15,-558.356 614.052,-423 593.485,-399.427 560.755,-391.133 530.121,-389.337"/>
<polygon fill="none" stroke="black" points="529.954,-385.828 519.834,-388.964 529.7,-392.824 529.954,-385.828"/>
</g>
<!-- \\App\\Model\\Table\\UsersTable -->
<g id="node16" class="node"><title>\\App\\Model\\Table\\UsersTable</title>
<polygon fill="none" stroke="black" points="824.052,-2030 740.052,-2030 740.052,-1994 824.052,-1994 824.052,-2030"/>
<text text-anchor="middle" x="782.052" y="-2009.2" font-family="Courier,monospace" font-size="11.00">UsersTable</text>
</g>
<!-- \\App\\Model\\Table\\UsersTable&#45;&gt;\\Cake\\ORM\\Table -->
<g id="edge15" class="edge"><title>\\App\\Model\\Table\\UsersTable&#45;&gt;\\Cake\\ORM\\Table</title>
<path fill="none" stroke="black" d="M739.999,-2010.45C713.248,-2007.07 680.077,-1997.89 662.052,-1974 558.214,-1836.36 727.485,-552.846 614.052,-423 593.47,-399.44 560.738,-391.147 530.107,-389.349"/>
<polygon fill="none" stroke="black" points="529.941,-385.841 519.82,-388.976 529.687,-392.836 529.941,-385.841"/>
</g>
<!-- \\App\\Shell\\ConsoleShell -->
<g id="node17" class="node"><title>\\App\\Shell\\ConsoleShell</title>
<polygon fill="none" stroke="black" points="831.052,-1942 733.052,-1942 733.052,-1906 831.052,-1906 831.052,-1942"/>
<text text-anchor="middle" x="782.052" y="-1921.2" font-family="Courier,monospace" font-size="11.00">ConsoleShell</text>
</g>
<!-- \\Cake\\Console\\Shell -->
<g id="node41" class="node"><title>\\Cake\\Console\\Shell</title>
<ellipse fill="none" stroke="black" cx="451.566" cy="-342" rx="83.3857" ry="18"/>
<text text-anchor="middle" x="451.566" y="-338.3" font-family="Times,serif" font-size="14.00" fill="gray">\Cake\Console\Shell</text>
</g>
<!-- \\App\\Shell\\ConsoleShell&#45;&gt;\\Cake\\Console\\Shell -->
<g id="edge11" class="edge"><title>\\App\\Shell\\ConsoleShell&#45;&gt;\\Cake\\Console\\Shell</title>
<path fill="none" stroke="black" d="M732.94,-1913.32C707.328,-1904.97 677.917,-1890.5 662.052,-1866 571.594,-1726.31 723.61,-494.269 614.052,-369 595.469,-347.752 567.004,-338.926 539.12,-336.082"/>
<polygon fill="none" stroke="black" points="539.132,-332.573 528.892,-335.293 538.593,-339.552 539.132,-332.573"/>
</g>
<!-- \\App\\Test\\Fixture\\ReservationsFixture -->
<g id="node18" class="node"><title>\\App\\Test\\Fixture\\ReservationsFixture</title>
<polygon fill="none" stroke="black" points="854.552,-1834 709.552,-1834 709.552,-1798 854.552,-1798 854.552,-1834"/>
<text text-anchor="middle" x="782.052" y="-1813.2" font-family="Courier,monospace" font-size="11.00">ReservationsFixture</text>
</g>
<!-- \\Cake\\TestSuite\\Fixture\\TestFixture -->
<g id="node46" class="node"><title>\\Cake\\TestSuite\\Fixture\\TestFixture</title>
<ellipse fill="none" stroke="black" cx="451.566" cy="-288" rx="132.677" ry="18"/>
<text text-anchor="middle" x="451.566" y="-284.3" font-family="Times,serif" font-size="14.00" fill="gray">\CakeTestSuite\FixtureTestFixture</text>
</g>
<!-- \\App\\Test\\Fixture\\ReservationsFixture&#45;&gt;\\Cake\\TestSuite\\Fixture\\TestFixture -->
<g id="edge22" class="edge"><title>\\App\\Test\\Fixture\\ReservationsFixture&#45;&gt;\\Cake\\TestSuite\\Fixture\\TestFixture</title>
<path fill="none" stroke="black" d="M709.282,-1814.82C691.288,-1810.88 673.785,-1803.21 662.052,-1789 557.731,-1662.63 721.959,-438.319 614.052,-315 607.243,-307.219 599.109,-301.104 590.164,-296.338"/>
<polygon fill="none" stroke="black" points="591.505,-293.102 580.967,-292.011 588.525,-299.436 591.505,-293.102"/>
</g>
<!-- \\App\\Test\\Fixture\\RoutesFixture -->
<g id="node19" class="node"><title>\\App\\Test\\Fixture\\RoutesFixture</title>
<polygon fill="none" stroke="black" points="834.052,-1780 730.052,-1780 730.052,-1744 834.052,-1744 834.052,-1780"/>
<text text-anchor="middle" x="782.052" y="-1759.2" font-family="Courier,monospace" font-size="11.00">RoutesFixture</text>
</g>
<!-- \\App\\Test\\Fixture\\RoutesFixture&#45;&gt;\\Cake\\TestSuite\\Fixture\\TestFixture -->
<g id="edge23" class="edge"><title>\\App\\Test\\Fixture\\RoutesFixture&#45;&gt;\\Cake\\TestSuite\\Fixture\\TestFixture</title>
<path fill="none" stroke="black" d="M729.998,-1763.85C705.635,-1761.81 678.316,-1754.68 662.052,-1735 561.473,-1613.32 718.084,-433.742 614.052,-315 607.238,-307.223 599.101,-301.111 590.153,-296.348"/>
<polygon fill="none" stroke="black" points="591.493,-293.11 580.954,-292.022 588.514,-299.445 591.493,-293.11"/>
</g>
<!-- \\App\\Test\\Fixture\\UsersFixture -->
<g id="node20" class="node"><title>\\App\\Test\\Fixture\\UsersFixture</title>
<polygon fill="none" stroke="black" points="831.052,-1726 733.052,-1726 733.052,-1690 831.052,-1690 831.052,-1726"/>
<text text-anchor="middle" x="782.052" y="-1705.2" font-family="Courier,monospace" font-size="11.00">UsersFixture</text>
</g>
<!-- \\App\\Test\\Fixture\\UsersFixture&#45;&gt;\\Cake\\TestSuite\\Fixture\\TestFixture -->
<g id="edge24" class="edge"><title>\\App\\Test\\Fixture\\UsersFixture&#45;&gt;\\Cake\\TestSuite\\Fixture\\TestFixture</title>
<path fill="none" stroke="black" d="M732.977,-1697.3C707.376,-1688.93 677.965,-1674.47 662.052,-1650 581.13,-1525.57 711.984,-426.537 614.052,-315 607.23,-307.23 599.086,-301.124 590.135,-296.364"/>
<polygon fill="none" stroke="black" points="591.471,-293.125 580.932,-292.042 588.496,-299.461 591.471,-293.125"/>
</g>
<!-- \\App\\Test\\TestCase\\Controller\\ReservationsControllerTest -->
<g id="node21" class="node"><title>\\App\\Test\\TestCase\\Controller\\ReservationsControllerTest</title>
<polygon fill="none" stroke="black" points="878.052,-1618 686.052,-1618 686.052,-1582 878.052,-1582 878.052,-1618"/>
<text text-anchor="middle" x="782.052" y="-1597.2" font-family="Courier,monospace" font-size="11.00">ReservationsControllerTest</text>
</g>
<!-- \\Cake\\TestSuite\\IntegrationTestCase -->
<g id="node47" class="node"><title>\\Cake\\TestSuite\\IntegrationTestCase</title>
<ellipse fill="none" stroke="black" cx="451.566" cy="-234" rx="137.576" ry="18"/>
<text text-anchor="middle" x="451.566" y="-230.3" font-family="Times,serif" font-size="14.00" fill="gray">\CakeTestSuite\IntegrationTestCase</text>
</g>
<!-- \\App\\Test\\TestCase\\Controller\\ReservationsControllerTest&#45;&gt;\\Cake\\TestSuite\\IntegrationTestCase -->
<g id="edge26" class="edge"><title>\\App\\Test\\TestCase\\Controller\\ReservationsControllerTest&#45;&gt;\\Cake\\TestSuite\\IntegrationTestCase</title>
<path fill="none" stroke="black" d="M685.886,-1591C676.781,-1586.67 668.541,-1580.83 662.052,-1573 568.958,-1460.69 710.333,-370.588 614.052,-261 607.852,-253.943 600.562,-248.258 592.566,-243.709"/>
<polygon fill="none" stroke="black" points="594.136,-240.581 583.631,-239.207 590.986,-246.832 594.136,-240.581"/>
</g>
<!-- \\App\\Test\\TestCase\\Controller\\RoutesControllerTest -->
<g id="node22" class="node"><title>\\App\\Test\\TestCase\\Controller\\RoutesControllerTest</title>
<polygon fill="none" stroke="black" points="858.052,-1564 706.052,-1564 706.052,-1528 858.052,-1528 858.052,-1564"/>
<text text-anchor="middle" x="782.052" y="-1543.2" font-family="Courier,monospace" font-size="11.00">RoutesControllerTest</text>
</g>
<!-- \\App\\Test\\TestCase\\Controller\\RoutesControllerTest&#45;&gt;\\Cake\\TestSuite\\IntegrationTestCase -->
<g id="edge27" class="edge"><title>\\App\\Test\\TestCase\\Controller\\RoutesControllerTest&#45;&gt;\\Cake\\TestSuite\\IntegrationTestCase</title>
<path fill="none" stroke="black" d="M705.929,-1543.98C689.148,-1539.85 673.081,-1532.28 662.052,-1519 572.7,-1411.38 706.458,-366.011 614.052,-261 607.846,-253.948 600.552,-248.267 592.553,-243.72"/>
<polygon fill="none" stroke="black" points="594.121,-240.591 583.616,-239.22 590.974,-246.843 594.121,-240.591"/>
</g>
<!-- \\App\\Test\\TestCase\\Controller\\UsersControllerTest -->
<g id="node23" class="node"><title>\\App\\Test\\TestCase\\Controller\\UsersControllerTest</title>
<polygon fill="none" stroke="black" points="854.552,-1510 709.552,-1510 709.552,-1474 854.552,-1474 854.552,-1510"/>
<text text-anchor="middle" x="782.052" y="-1489.2" font-family="Courier,monospace" font-size="11.00">UsersControllerTest</text>
</g>
<!-- \\App\\Test\\TestCase\\Controller\\UsersControllerTest&#45;&gt;\\Cake\\TestSuite\\IntegrationTestCase -->
<g id="edge28" class="edge"><title>\\App\\Test\\TestCase\\Controller\\UsersControllerTest&#45;&gt;\\Cake\\TestSuite\\IntegrationTestCase</title>
<path fill="none" stroke="black" d="M713.854,-1473.99C693.88,-1465.24 674.127,-1452.47 662.052,-1434 590.666,-1324.82 700.359,-358.808 614.052,-261 607.837,-253.957 600.535,-248.282 592.531,-243.739"/>
<polygon fill="none" stroke="black" points="594.095,-240.608 583.589,-239.244 590.951,-246.863 594.095,-240.608"/>
</g>
<!-- \\App\\Test\\TestCase\\Model\\Entity\\UserTest -->
<g id="node24" class="node"><title>\\App\\Test\\TestCase\\Model\\Entity\\UserTest</title>
<polygon fill="none" stroke="black" points="817.552,-1402 746.552,-1402 746.552,-1366 817.552,-1366 817.552,-1402"/>
<text text-anchor="middle" x="782.052" y="-1381.2" font-family="Courier,monospace" font-size="11.00">UserTest</text>
</g>
<!-- \\Cake\\TestSuite\\TestCase -->
<g id="node48" class="node"><title>\\Cake\\TestSuite\\TestCase</title>
<ellipse fill="none" stroke="black" cx="451.566" cy="-180" rx="96.6831" ry="18"/>
<text text-anchor="middle" x="451.566" y="-176.3" font-family="Times,serif" font-size="14.00" fill="gray">\CakeTestSuiteTestCase</text>
</g>
<!-- \\App\\Test\\TestCase\\Model\\Entity\\UserTest&#45;&gt;\\Cake\\TestSuite\\TestCase -->
<g id="edge29" class="edge"><title>\\App\\Test\\TestCase\\Model\\Entity\\UserTest&#45;&gt;\\Cake\\TestSuite\\TestCase</title>
<path fill="none" stroke="black" d="M746.377,-1386.5C719.008,-1386.38 682.191,-1381.17 662.052,-1357 580.183,-1258.75 698.709,-302.858 614.052,-207 598.809,-189.74 577.042,-180.7 554.406,-176.406"/>
<polygon fill="none" stroke="black" points="554.744,-172.916 544.318,-174.8 553.644,-179.829 554.744,-172.916"/>
</g>
<!-- \\App\\Test\\TestCase\\Model\\Entity\\RouteTest -->
<g id="node25" class="node"><title>\\App\\Test\\TestCase\\Model\\Entity\\RouteTest</title>
<polygon fill="none" stroke="black" points="820.552,-1348 743.552,-1348 743.552,-1312 820.552,-1312 820.552,-1348"/>
<text text-anchor="middle" x="782.052" y="-1327.2" font-family="Courier,monospace" font-size="11.00">RouteTest</text>
</g>
<!-- \\App\\Test\\TestCase\\Model\\Entity\\RouteTest&#45;&gt;\\Cake\\TestSuite\\TestCase -->
<g id="edge30" class="edge"><title>\\App\\Test\\TestCase\\Model\\Entity\\RouteTest&#45;&gt;\\Cake\\TestSuite\\TestCase</title>
<path fill="none" stroke="black" d="M743.313,-1332.45C716.325,-1331.95 681.469,-1326.25 662.052,-1303 583.925,-1209.44 694.834,-298.282 614.052,-207 598.873,-189.848 577.251,-180.819 554.746,-176.498"/>
<polygon fill="none" stroke="black" points="555.145,-173.017 544.715,-174.878 554.029,-179.927 555.145,-173.017"/>
</g>
<!-- \\App\\Test\\TestCase\\Model\\Entity\\ReservationTest -->
<g id="node26" class="node"><title>\\App\\Test\\TestCase\\Model\\Entity\\ReservationTest</title>
<polygon fill="none" stroke="black" points="841.052,-1294 723.052,-1294 723.052,-1258 841.052,-1258 841.052,-1294"/>
<text text-anchor="middle" x="782.052" y="-1273.2" font-family="Courier,monospace" font-size="11.00">ReservationTest</text>
</g>
<!-- \\App\\Test\\TestCase\\Model\\Entity\\ReservationTest&#45;&gt;\\Cake\\TestSuite\\TestCase -->
<g id="edge31" class="edge"><title>\\App\\Test\\TestCase\\Model\\Entity\\ReservationTest&#45;&gt;\\Cake\\TestSuite\\TestCase</title>
<path fill="none" stroke="black" d="M722.935,-1275.47C700.499,-1272.09 676.745,-1263.98 662.052,-1246 588.935,-1156.5 690.745,-293.453 614.052,-207 598.853,-189.866 577.223,-180.844 554.717,-176.523"/>
<polygon fill="none" stroke="black" points="555.116,-173.042 544.686,-174.903 554,-179.953 555.116,-173.042"/>
</g>
<!-- \\App\\Test\\TestCase\\Model\\Table\\UsersTableTest -->
<g id="node27" class="node"><title>\\App\\Test\\TestCase\\Model\\Table\\UsersTableTest</title>
<polygon fill="none" stroke="black" points="837.552,-1214 726.552,-1214 726.552,-1178 837.552,-1178 837.552,-1214"/>
<text text-anchor="middle" x="782.052" y="-1193.2" font-family="Courier,monospace" font-size="11.00">UsersTableTest</text>
</g>
<!-- \\App\\Test\\TestCase\\Model\\Table\\UsersTableTest&#45;&gt;\\Cake\\TestSuite\\TestCase -->
<g id="edge32" class="edge"><title>\\App\\Test\\TestCase\\Model\\Table\\UsersTableTest&#45;&gt;\\Cake\\TestSuite\\TestCase</title>
<path fill="none" stroke="black" d="M726.475,-1197.39C703.107,-1194.93 677.656,-1187.57 662.052,-1169 593.207,-1087.06 685.221,-286.929 614.052,-207 598.821,-189.895 577.18,-180.882 554.673,-176.563"/>
<polygon fill="none" stroke="black" points="555.072,-173.082 544.642,-174.943 553.956,-179.992 555.072,-173.082"/>
</g>
<!-- \\App\\Test\\TestCase\\Model\\Table\\ReservationsTableTest -->
<g id="node28" class="node"><title>\\App\\Test\\TestCase\\Model\\Table\\ReservationsTableTest</title>
<polygon fill="none" stroke="black" points="861.052,-1160 703.052,-1160 703.052,-1124 861.052,-1124 861.052,-1160"/>
<text text-anchor="middle" x="782.052" y="-1139.2" font-family="Courier,monospace" font-size="11.00">ReservationsTableTest</text>
</g>
<!-- \\App\\Test\\TestCase\\Model\\Table\\ReservationsTableTest&#45;&gt;\\Cake\\TestSuite\\TestCase -->
<g id="edge33" class="edge"><title>\\App\\Test\\TestCase\\Model\\Table\\ReservationsTableTest&#45;&gt;\\Cake\\TestSuite\\TestCase</title>
<path fill="none" stroke="black" d="M702.984,-1139.07C687.324,-1134.79 672.495,-1127.39 662.052,-1115 531.843,-960.489 748.645,-357.708 614.052,-207 598.796,-189.917 577.145,-180.913 554.637,-176.595"/>
<polygon fill="none" stroke="black" points="555.037,-173.114 544.606,-174.974 553.92,-180.024 555.037,-173.114"/>
</g>
<!-- \\App\\Test\\TestCase\\Model\\Table\\RoutesTableTest -->
<g id="node29" class="node"><title>\\App\\Test\\TestCase\\Model\\Table\\RoutesTableTest</title>
<polygon fill="none" stroke="black" points="841.052,-1106 723.052,-1106 723.052,-1070 841.052,-1070 841.052,-1106"/>
<text text-anchor="middle" x="782.052" y="-1085.2" font-family="Courier,monospace" font-size="11.00">RoutesTableTest</text>
</g>
<!-- \\App\\Test\\TestCase\\Model\\Table\\RoutesTableTest&#45;&gt;\\Cake\\TestSuite\\TestCase -->
<g id="edge34" class="edge"><title>\\App\\Test\\TestCase\\Model\\Table\\RoutesTableTest&#45;&gt;\\Cake\\TestSuite\\TestCase</title>
<path fill="none" stroke="black" d="M742.19,-1069.96C714.629,-1054.91 679.548,-1030.65 662.052,-998 578.873,-842.781 731.864,-337.888 614.052,-207 598.812,-190.069 577.288,-181.092 554.908,-176.749"/>
<polygon fill="none" stroke="black" points="555.369,-173.278 544.934,-175.114 554.237,-180.186 555.369,-173.278"/>
</g>
<!-- \\Migrations\\AbstractMigration\\CreateUsers -->
<g id="node30" class="node"><title>\\Migrations\\AbstractMigration\\CreateUsers</title>
<polygon fill="none" stroke="black" points="827.552,-966 736.552,-966 736.552,-930 827.552,-930 827.552,-966"/>
<text text-anchor="middle" x="782.052" y="-945.2" font-family="Courier,monospace" font-size="11.00">CreateUsers</text>
</g>
<!-- \\Migrations\\AbstractMigration -->
<g id="node37" class="node"><title>\\Migrations\\AbstractMigration</title>
<ellipse fill="none" stroke="black" cx="451.566" cy="-126" rx="120.479" ry="18"/>
<text text-anchor="middle" x="451.566" y="-122.3" font-family="Times,serif" font-size="14.00" fill="gray">\Migrations\AbstractMigration</text>
</g>
<!-- \\Migrations\\AbstractMigration\\CreateUsers&#45;&gt;\\Migrations\\AbstractMigration -->
<g id="edge2" class="edge"><title>\\Migrations\\AbstractMigration\\CreateUsers&#45;&gt;\\Migrations\\AbstractMigration</title>
<path fill="none" stroke="black" d="M736.507,-950.092C710.777,-948.71 680.037,-942.135 662.052,-921 551.232,-790.77 728.567,-279.993 614.052,-153 605.026,-142.991 593.805,-135.763 581.51,-130.63"/>
<polygon fill="none" stroke="black" points="582.511,-127.269 571.917,-127.102 580.094,-133.839 582.511,-127.269"/>
</g>
<!-- \\Migrations\\AbstractMigration\\CreateRoutes -->
<g id="node31" class="node"><title>\\Migrations\\AbstractMigration\\CreateRoutes</title>
<polygon fill="none" stroke="black" points="831.052,-912 733.052,-912 733.052,-876 831.052,-876 831.052,-912"/>
<text text-anchor="middle" x="782.052" y="-891.2" font-family="Courier,monospace" font-size="11.00">CreateRoutes</text>
</g>
<!-- \\Migrations\\AbstractMigration\\CreateRoutes&#45;&gt;\\Migrations\\AbstractMigration -->
<g id="edge5" class="edge"><title>\\Migrations\\AbstractMigration\\CreateRoutes&#45;&gt;\\Migrations\\AbstractMigration</title>
<path fill="none" stroke="black" d="M732.979,-895.837C708.036,-894.036 679.261,-887.127 662.052,-867 558.708,-746.133 720.825,-270.849 614.052,-153 605.003,-143.012 593.766,-135.798 581.463,-130.673"/>
<polygon fill="none" stroke="black" points="582.459,-127.31 571.865,-127.149 580.046,-133.881 582.459,-127.31"/>
</g>
<!-- \\Migrations\\AbstractMigration\\CreateReservations -->
<g id="node32" class="node"><title>\\Migrations\\AbstractMigration\\CreateReservations</title>
<polygon fill="none" stroke="black" points="851.052,-858 713.052,-858 713.052,-822 851.052,-822 851.052,-858"/>
<text text-anchor="middle" x="782.052" y="-837.2" font-family="Courier,monospace" font-size="11.00">CreateReservations</text>
</g>
<!-- \\Migrations\\AbstractMigration\\CreateReservations&#45;&gt;\\Migrations\\AbstractMigration -->
<g id="edge19" class="edge"><title>\\Migrations\\AbstractMigration\\CreateReservations&#45;&gt;\\Migrations\\AbstractMigration</title>
<path fill="none" stroke="black" d="M724.023,-821.979C700.912,-811.681 676.348,-796.265 662.052,-774 587.27,-657.529 707.497,-255.107 614.052,-153 604.953,-143.058 593.685,-135.872 581.364,-130.763"/>
<polygon fill="none" stroke="black" points="582.348,-127.397 571.754,-127.25 579.944,-133.971 582.348,-127.397"/>
</g>
<!-- \\Phinx\\Seed\\RoutesSeed -->
<g id="node33" class="node"><title>\\Phinx\\Seed\\RoutesSeed</title>
<polygon fill="none" stroke="black" points="824.052,-742 740.052,-742 740.052,-706 824.052,-706 824.052,-742"/>
<text text-anchor="middle" x="782.052" y="-721.2" font-family="Courier,monospace" font-size="11.00">RoutesSeed</text>
</g>
<!-- \\Phinx\\Seed\\AbstractSeed -->
<g id="node39" class="node"><title>\\Phinx\\Seed\\AbstractSeed</title>
<ellipse fill="none" stroke="black" cx="451.566" cy="-72" rx="102.882" ry="18"/>
<text text-anchor="middle" x="451.566" y="-68.3" font-family="Times,serif" font-size="14.00" fill="gray">\Phinx\Seed\AbstractSeed</text>
</g>
<!-- \\Phinx\\Seed\\RoutesSeed&#45;&gt;\\Phinx\\Seed\\AbstractSeed -->
<g id="edge6" class="edge"><title>\\Phinx\\Seed\\RoutesSeed&#45;&gt;\\Phinx\\Seed\\AbstractSeed</title>
<path fill="none" stroke="black" d="M740.024,-728.017C713.813,-728.14 681.256,-723.299 662.052,-702 572.038,-602.164 704.919,-198.061 614.052,-99 600.491,-84.2164 582.134,-75.532 562.656,-70.7075"/>
<polygon fill="none" stroke="black" points="563.215,-67.2481 552.705,-68.5819 561.753,-74.0937 563.215,-67.2481"/>
</g>
<!-- \\TestSale -->
<g id="node34" class="node"><title>\\TestSale</title>
<polygon fill="none" stroke="black" points="817.552,-682 746.552,-682 746.552,-646 817.552,-646 817.552,-682"/>
<text text-anchor="middle" x="782.052" y="-661.2" font-family="Courier,monospace" font-size="11.00">TestSale</text>
</g>
<!-- \\PHPUnit_Extensions_Selenium2TestCase -->
<g id="node45" class="node"><title>\\PHPUnit_Extensions_Selenium2TestCase</title>
<ellipse fill="none" stroke="black" cx="451.566" cy="-18" rx="162.471" ry="18"/>
<text text-anchor="middle" x="451.566" y="-14.3" font-family="Times,serif" font-size="14.00" fill="gray">\PHPUnit_Extensions_Selenium2TestCase</text>
</g>
<!-- \\TestSale&#45;&gt;\\PHPUnit_Extensions_Selenium2TestCase -->
<g id="edge21" class="edge"><title>\\TestSale&#45;&gt;\\PHPUnit_Extensions_Selenium2TestCase</title>
<path fill="none" stroke="black" d="M746.35,-666.287C719.155,-666.012 682.591,-660.689 662.052,-637 575.589,-537.276 703.343,-142.199 614.052,-45 609.802,-40.3735 605.082,-36.3446 600.005,-32.8446"/>
<polygon fill="none" stroke="black" points="601.504,-29.6593 591.144,-27.4415 597.86,-35.6359 601.504,-29.6593"/>
</g>
<!-- \\AddUser -->
<g id="node35" class="node"><title>\\AddUser</title>
<polygon fill="none" stroke="black" points="814.052,-628 750.052,-628 750.052,-592 814.052,-592 814.052,-628"/>
<text text-anchor="middle" x="782.052" y="-607.2" font-family="Courier,monospace" font-size="11.00">AddUser</text>
</g>
<!-- \\AddUser&#45;&gt;\\PHPUnit_Extensions_Selenium2TestCase -->
<g id="edge25" class="edge"><title>\\AddUser&#45;&gt;\\PHPUnit_Extensions_Selenium2TestCase</title>
<path fill="none" stroke="black" d="M778.321,-591.99C764.631,-504.137 700.697,-121.691 614.052,-45 608.689,-40.2533 602.818,-36.1794 596.59,-32.6918"/>
<polygon fill="none" stroke="black" points="597.735,-29.3505 587.228,-27.9916 594.594,-35.6064 597.735,-29.3505"/>
</g>
</g>
</svg>
